HIERARCHY
ROOT hip
{
	OFFSET 0.000000 0.000000 0.000000 
	CHANNELS 6 Xposition Yposition Zposition Xrotation Zrotation Yrotation
	JOINT abdomen
	{
		OFFSET 0.000000 3.402643 0.000000 
		CHANNELS 3 Xrotation Zrotation Yrotation
		JOINT chest
		{
			OFFSET 0.000000 8.438565 -0.680529 
			CHANNELS 3 Xrotation Zrotation Yrotation
			JOINT neck
			{
				OFFSET 0.000000 10.207942 -0.272212 
				CHANNELS 3 Xrotation Zrotation Yrotation
				JOINT head
				{
					OFFSET 0.000000 3.130431 0.000000 
					CHANNELS 3 Xrotation Zrotation Yrotation
					End Site
					{
						OFFSET 0.000000 3.130435 0.000000 
					}
				}
			}
			JOINT lCollar
			{
				OFFSET 3.470700 6.669187 -0.816635 
				CHANNELS 3 Yrotation Zrotation Xrotation
				JOINT lShldr
				{
					OFFSET 3.198488 0.000000 0.000000 
					CHANNELS 3 Zrotation Yrotation Xrotation
					JOINT lForeArm
					{
						OFFSET 10.139888 0.000000 0.000000 
						CHANNELS 3 Yrotation Zrotation Xrotation
						JOINT lHand
						{
							OFFSET 8.370511 0.000000 0.000000 
							CHANNELS 3 Zrotation Yrotation Xrotation
							End Site
							{
								OFFSET 4.083176 0.000000 0.000000 
							}
						}
					}
				}
			}
			JOINT rCollar
			{
				OFFSET -3.470700 6.669187 -0.816635 
				CHANNELS 3 Yrotation Zrotation Xrotation
				JOINT rShldr
				{
					OFFSET -3.198488 0.000000 0.000000 
					CHANNELS 3 Zrotation Yrotation Xrotation
					JOINT rForeArm
					{
						OFFSET -10.139888 0.000000 0.000000 
						CHANNELS 3 Yrotation Zrotation Xrotation
						JOINT rHand
						{
							OFFSET -8.370511 0.000000 0.000000 
							CHANNELS 3 Zrotation Yrotation Xrotation
							End Site
							{
								OFFSET -4.083176 0.000000 0.000000 
							}
						}
					}
				}
			}
		}
	}
	JOINT lThigh
	{
		OFFSET 5.308129 -1.633274 1.361059 
		CHANNELS 3 Xrotation Zrotation Yrotation
		JOINT lShin
		{
			OFFSET -2.041588 -20.007561 0.000000 
			CHANNELS 3 Xrotation Zrotation Yrotation
			JOINT lFoot
			{
				OFFSET 0.000000 -19.190928 -1.224953 
				CHANNELS 3 Xrotation Yrotation Zrotation
				End Site
				{
					OFFSET 0.000000 -2.449906 4.627600 
				}
			}
		}
	}
	JOINT rThigh
	{
		OFFSET -5.308129 -1.633274 1.361059 
		CHANNELS 3 Xrotation Zrotation Yrotation
		JOINT rShin
		{
			OFFSET 2.041588 -20.007561 0.000000 
			CHANNELS 3 Xrotation Zrotation Yrotation
			JOINT rFoot
			{
				OFFSET 0.000000 -19.190928 -1.224953 
				CHANNELS 3 Xrotation Yrotation Zrotation
				End Site
				{
					OFFSET 0.000000 -2.449906 4.627600 
				}
			}
		}
	}
}
MOTION
Frames: 17
Frame Time: 0.033333
0.320831 48.798431 1.821535 3.189497 -1.908312 -12.301980 0.000000 0.000000 0.000000 -2.897678 2.922718 -0.315416 0.687901 1.943354 0.127211 8.511198 5.390572 -0.254618 0.320344 -4.896665 -1.969848 -66.125946 17.853863 -10.211303 -41.632591 -5.048988 16.983953 -7.617681 3.917636 -3.539434 1.481019 13.118433 -2.176392 65.000542 -30.040928 -10.495992 41.108761 1.759728 6.915506 -5.317945 -10.008888 -3.298990 7.633656 18.765137 14.178285 0.650578 -2.068161 3.262812 -5.935722 0.843888 -16.407339 -8.246360 -5.834802 -7.237213 21.423279 4.687129 6.685043 -15.041048 -0.152672 1.248224 
-0.314024 48.736401 1.735955 3.176938 -1.615155 -13.374742 0.000000 0.000000 0.000000 -2.662666 2.818820 -0.688164 0.933759 1.962882 0.176013 7.280356 5.615232 -0.048594 -0.017404 -4.747756 -1.743632 -69.879669 20.044264 -11.077427 -42.569492 -4.857202 15.143744 -4.131373 4.665919 -3.565535 1.096379 13.467459 -1.939617 68.362877 -32.120445 -10.168838 41.403774 2.027061 5.464321 -4.718706 -12.162960 -3.271185 7.537322 18.874472 13.914773 1.633453 -1.196005 3.536895 -6.068449 0.956545 -17.661623 -8.801994 -5.648801 -7.453829 22.603540 5.194694 8.017127 -15.595631 0.040813 -0.143032 
-0.906802 48.688343 1.660188 2.847543 -1.544147 -14.058052 0.000000 0.000000 0.000000 -2.086140 2.890071 -1.283440 1.229345 2.197265 -0.029275 6.661012 5.077969 0.451777 -0.541948 -4.481966 -1.184851 -71.659973 21.770304 -9.488452 -42.581429 -5.378511 16.316711 -2.260164 5.185952 -3.551522 0.492027 13.986515 -1.390289 69.792755 -33.868511 -8.813921 42.037380 2.295545 7.380937 -4.452897 -13.036103 -3.266052 6.461280 19.174509 12.688370 4.242640 0.323442 3.302891 -4.209356 0.710004 -19.338591 -8.846438 -5.145556 -7.421371 23.408010 5.370844 8.438402 -15.970737 0.177434 -1.138158 
-1.391347 48.663174 1.590503 2.387637 -1.077949 -14.475367 0.000000 0.000000 0.000000 -1.488285 2.748902 -1.946939 1.476646 2.158190 -0.204933 6.940215 5.009051 0.970778 -1.167532 -4.196882 -0.606583 -72.273056 23.397070 -6.514091 -42.467560 -6.155907 20.089510 -1.991556 6.169651 -3.593187 -0.168195 14.056299 -0.795812 69.816498 -35.070694 -6.489007 41.920078 2.579861 11.908188 -2.959166 -12.680363 -3.397985 1.755885 19.076750 9.561247 12.761288 2.196802 4.902830 -4.382564 0.829227 -21.347591 -8.816974 -5.194258 -7.527813 24.174013 5.399799 9.122446 -16.389330 0.314031 -1.958388 
-1.767047 48.634628 1.568650 1.880535 -0.641522 -14.971710 0.000000 0.000000 0.000000 -0.939548 2.648320 -2.388657 1.730505 2.236259 -0.449258 8.000813 4.959717 1.274909 -1.853436 -3.775514 -0.116872 -72.362854 24.791952 -3.967562 -42.649971 -6.893118 23.146929 -3.826527 6.697346 -3.652224 -0.602526 14.134013 -0.293690 68.469307 -36.085476 -3.334541 42.555351 3.237757 12.357857 -3.860276 -13.653303 -3.315459 -1.318711 17.920685 6.989150 17.874170 3.914294 10.610645 -2.319491 0.488945 -23.530191 -8.724218 -5.317250 -7.573007 24.893688 5.341149 9.872523 -16.786213 0.416896 -2.621788 
-2.045876 48.656433 1.586888 1.253394 -0.047021 -15.634778 0.000000 0.000000 0.000000 -0.410347 2.421197 -2.612433 1.947993 2.451048 -0.576480 9.945183 4.373051 1.714432 -2.293276 -3.364134 0.362133 -72.603569 25.688417 -2.468640 -42.525085 -7.306755 25.163984 -4.783524 7.824597 -3.746361 -1.089532 13.609116 0.229755 66.832832 -36.015198 -0.367394 42.510284 3.814816 13.220460 -5.106555 -11.924614 -3.246443 -2.714853 16.080976 5.189950 19.582367 4.724609 15.666364 -0.800585 0.190623 -24.105120 -8.316746 -5.719483 -7.660284 25.183205 5.243814 10.809402 -16.957916 0.496695 -3.164658 
-2.266556 48.707531 1.628306 0.717778 0.505155 -16.680311 0.000000 0.000000 0.000000 0.009035 2.336290 -2.368997 2.428831 2.353514 -0.068302 11.222612 4.343173 1.959347 -2.233873 -3.261236 0.733447 -72.880409 25.697765 -2.338101 -42.537231 -7.492210 23.817921 -4.170810 9.501646 -3.816045 -1.101505 13.211606 0.630101 64.571396 -35.592793 2.463685 42.554066 4.348344 13.479596 -5.724165 -11.329764 -3.217291 -4.256401 14.806605 4.124625 21.806889 3.853242 11.340409 -3.497505 0.701252 -21.848345 -7.836413 -6.185866 -7.719516 25.131479 5.234241 12.288129 -16.928936 0.604352 -3.801543 
-2.416897 48.762123 1.638335 0.704188 0.994335 -17.903025 0.000000 0.000000 0.000000 0.036430 2.405331 -1.845829 2.784218 2.509681 0.469583 12.870873 3.600933 2.172273 -1.798834 -2.875100 0.742840 -73.366013 25.115450 -2.571252 -42.462868 -7.463021 22.289787 -2.518427 11.038095 -3.769951 -0.575983 13.373508 0.630151 61.897755 -35.131844 4.660995 42.840302 4.712106 13.218313 -5.834552 -11.955654 -3.192152 -7.459920 13.366880 3.172072 24.934568 2.758755 8.001390 -5.675395 0.965631 -18.953817 -7.856120 -6.498322 -7.631110 24.876869 5.253977 13.735765 -16.722282 0.657537 -4.345416 
-2.509719 48.782341 1.680254 0.642679 1.497706 -18.795675 0.000000 0.000000 0.000000 0.112879 2.508149 -1.276802 3.076518 2.528819 1.114782 14.207707 2.829660 2.346676 -1.233532 -2.614934 0.791786 -73.761658 23.873285 -2.714131 -42.849167 -7.282804 21.524143 -0.073504 11.816160 -3.627335 -0.090542 13.085806 0.701219 59.713379 -34.170345 6.388543 43.156624 5.011358 12.227478 -5.613956 -13.008287 -3.166867 -9.628630 11.415615 2.548489 25.576120 1.772829 8.592202 -6.585637 1.017719 -16.383173 -7.748107 -7.004892 -7.756877 24.962191 5.429852 15.660034 -16.760847 0.794872 -5.087654 
-2.539507 48.741596 1.738893 0.475949 2.081109 -19.456615 0.000000 0.000000 0.000000 0.287995 2.495230 -0.687033 3.412731 2.469629 1.691250 15.192750 2.312500 2.355538 -0.772038 -2.434418 0.908956 -73.838425 22.333694 -2.722713 -43.892384 -7.165195 20.052927 0.171126 11.087834 -3.598612 0.249445 12.895615 0.850537 57.596054 -33.159458 7.348472 44.194614 5.100068 11.121926 -6.314737 -13.391685 -3.099193 -11.364450 9.099255 2.167426 24.567415 0.708382 11.318698 -6.974611 0.849194 -13.680706 -7.983010 -7.883793 -7.922605 25.764853 5.518027 17.579857 -17.155022 0.896302 -5.666251 
-2.517071 48.746380 1.807809 0.525614 2.771903 -19.985233 0.000000 0.000000 0.000000 0.317086 2.505971 -0.158353 3.675047 2.361527 2.209180 15.823163 1.746596 2.335281 -0.319827 -2.564109 0.928973 -73.325981 20.465620 -2.091908 -44.650791 -7.278856 19.335125 0.647349 9.669392 -3.549121 0.567439 12.744343 0.879079 55.690731 -31.705435 7.856271 44.851658 5.049045 11.376036 -6.887806 -13.530995 -3.046673 -13.235549 6.764073 1.900660 22.618059 -0.607654 13.765859 -6.157460 0.601826 -10.361038 -8.367159 -8.717970 -8.084147 26.149090 5.547115 18.743641 -17.309124 0.943173 -5.918665 
-2.451895 48.740196 1.867340 0.767886 3.430741 -20.086157 0.000000 0.000000 0.000000 0.287777 2.530787 0.104151 3.865005 2.390264 2.521818 16.250484 1.161063 2.432328 -0.167882 -2.424736 0.879767 -73.069839 18.289959 -1.738115 -45.317429 -7.271929 18.451740 0.060284 8.673134 -3.571453 0.774217 12.570987 0.838814 54.167816 -30.031939 7.483817 45.657272 4.814649 10.732959 -7.286500 -13.676951 -3.002131 -15.199215 4.461260 1.508763 19.710621 -1.974383 15.301297 -4.184492 0.271683 -6.472470 -9.030146 -9.361020 -8.031068 26.585112 5.391444 19.097536 -17.584883 0.941628 -5.889690 
-2.401350 48.719429 1.966832 1.428688 3.868064 -20.213606 0.000000 0.000000 0.000000 0.042909 2.753722 0.387182 3.793588 2.409039 2.893404 16.414276 0.868339 2.461247 -0.099245 -2.462209 0.645194 -72.229843 16.025322 -0.674440 -45.934078 -7.409201 18.401417 0.663261 8.701314 -3.539551 1.208432 12.883679 0.580317 52.319176 -28.384754 6.861549 46.649796 4.544556 9.339320 -7.533971 -13.625925 -2.982638 -17.268070 2.684551 1.294021 16.240244 -3.426110 16.494770 -0.923062 0.055716 -2.346019 -9.879071 -9.682706 -7.865118 26.882521 5.351665 19.395338 -17.810699 0.936574 -5.873230 
-2.406549 48.695026 2.160512 1.578748 4.118065 -20.122313 0.000000 0.000000 0.000000 0.120630 2.841221 0.378920 3.811272 2.418405 3.069442 16.751823 0.731675 2.588178 -0.225710 -2.297865 0.703728 -71.356461 13.804482 0.721088 -46.431690 -7.609118 18.728781 1.433653 8.672421 -3.512076 1.407451 12.827836 0.608829 50.913467 -26.273132 6.308534 47.068275 4.512075 7.952138 -8.330651 -12.878095 -2.950043 -17.986132 0.995637 1.108920 11.510288 -4.470261 19.809101 2.986286 0.054234 0.639504 -9.774513 -10.067165 -8.036878 27.069500 5.459025 19.986738 -18.243332 0.993944 -6.056653 
-2.460325 48.688068 2.405715 1.877233 4.227043 -20.164091 0.000000 0.000000 0.000000 0.071403 2.931479 0.399826 3.798319 2.388700 3.264579 16.913185 0.595025 2.734532 -0.335566 -2.191598 0.674443 -70.102837 11.846443 2.676168 -46.758888 -7.934187 19.687529 2.218789 8.174345 -3.467024 1.619948 12.437614 0.549518 50.007957 -24.009928 5.838521 47.421574 4.343836 7.550282 -8.129597 -13.519482 -2.921515 -18.426100 -0.166253 0.697249 7.703155 -4.978267 23.467585 4.041495 0.029221 0.246971 -9.722894 -10.082819 -7.988082 26.959564 5.366059 19.802422 -18.544577 0.994325 -5.926769 
-2.562195 48.653564 2.749669 2.272740 4.259699 -20.312284 0.000000 0.000000 0.000000 -0.192378 2.965241 0.445684 3.718982 2.388197 3.469886 17.121920 0.438886 2.910295 -0.414950 -1.966058 0.430093 -69.078606 10.345478 4.418729 -46.766956 -8.106522 21.936735 3.133580 7.597873 -3.445243 1.886187 12.245138 0.267885 49.086708 -22.076485 5.754077 47.548283 4.269796 7.512974 -8.262422 -13.393923 -2.930111 -18.535971 -1.054600 -0.060423 4.579205 -4.564885 27.322203 4.344862 0.020491 0.202526 -9.683130 -10.033070 -8.038685 26.966627 5.430411 19.913723 -18.952435 1.030501 -6.010900 
-2.738050 48.572514 3.180527 3.017357 4.059890 -20.591101 0.000000 0.000000 0.000000 -0.817494 3.041955 0.634625 3.514072 2.494588 3.773180 16.990799 0.536384 2.978659 -0.327060 -1.756927 -0.156174 -68.142540 9.323069 5.388875 -47.237698 -8.119390 23.084860 2.350839 7.047307 -3.475916 2.360276 12.398257 -0.350325 47.975048 -20.737049 6.042327 47.883003 4.236465 7.536982 -8.575170 -12.984906 -2.928253 -20.118887 -1.249864 -0.382859 6.716846 -3.902271 29.361092 4.085808 0.017712 0.634613 -9.800046 -9.574118 -7.819356 27.056538 5.473616 20.017967 -19.546177 1.110143 -6.127535 
